<?xml version="1.0" encoding="utf-8"?>
<!-- Generator: Adobe Illustrator 22.1.0, SVG Export Plug-In . SVG Version: 6.00 Build 0)  -->
<svg version="1.1" id="Layer_1" xmlns="http://www.w3.org/2000/svg" xmlns:xlink="http://www.w3.org/1999/xlink" x="0px" y="0px"
	 viewBox="0 0 512 512" style="enable-background:new 0 0 512 512;" xml:space="preserve">
<style type="text/css">
	.st0{fill:#4A5473;}
</style>
<path class="st0" d="M376,186h-20v-40c0-55-45-100-100-100S156,91,156,146v40h-20c-22,0-40,18-40,40v200c0,22,18,40,40,40h240
	c22,0,40-18,40-40V226C416,204,398,186,376,186z M256,368c-22,0-40-18-40-40s18-40,40-40s40,18,40,40S278,368,256,368z M318,186H194
	v-40c0-34,28-62,62-62c34,0,62,28,62,62V186z"/>
</svg>
