<?xml version="1.0" encoding="utf-8"?>
<!-- Generator: Adobe Illustrator 22.1.0, SVG Export Plug-In . SVG Version: 6.00 Build 0)  -->
<svg version="1.1" id="Layer_1" xmlns="http://www.w3.org/2000/svg" xmlns:xlink="http://www.w3.org/1999/xlink" x="0px" y="0px"
	 viewBox="0 0 500 200" style="enable-background:new 0 0 500 200;" xml:space="preserve">
<style type="text/css">
	.st0{display:none;}
	.st1{display:inline;fill:#DDC7DB;}
	.st2{fill:url(#SVGID_1_);}
	.st3{fill:#48C3E5;}
	.st4{fill:#DAF3FA;}
</style>
<g class="st0">
	<path class="st1" d="M43.8-60.4c0,2.2-0.3,4.3-0.9,6.4c-0.6,2-1.4,4-2.4,5.7s-2.3,3.4-3.8,4.9s-3.1,2.7-4.9,3.8
		c-1.8,1-3.7,1.9-5.7,2.4c-2,0.6-4.2,0.9-6.4,0.9H5.3v-48h14.5c2.2,0,4.3,0.3,6.4,0.9c2,0.6,4,1.4,5.7,2.4c1.8,1.1,3.4,2.3,4.9,3.8
		s2.7,3.1,3.8,4.9s1.9,3.7,2.4,5.7C43.5-64.7,43.8-62.6,43.8-60.4z M34.2-60.4c0-2-0.4-3.9-1.1-5.6c-0.7-1.7-1.8-3.3-3.1-4.6
		c-1.3-1.3-2.8-2.3-4.6-3.1c-1.8-0.8-3.6-1.1-5.6-1.1H15V-46h4.8c2,0,3.9-0.4,5.6-1.1c1.8-0.7,3.3-1.8,4.6-3.1
		c1.3-1.3,2.3-2.8,3.1-4.6C33.8-56.5,34.2-58.4,34.2-60.4z"/>
	<path class="st1" d="M93.2-55.6c0,2.7-0.5,5.2-1.5,7.5s-2.4,4.4-4.1,6.1s-3.8,3.1-6.1,4.1s-4.8,1.5-7.5,1.5s-5.2-0.5-7.5-1.5
		s-4.4-2.4-6.1-4.1s-3.1-3.8-4.1-6.1s-1.5-4.8-1.5-7.5v-28.8h9.6v28.8c0,1.3,0.3,2.6,0.8,3.7s1.2,2.2,2.1,3c0.9,0.9,1.9,1.6,3.1,2.1
		s2.4,0.8,3.7,0.8c1.3,0,2.6-0.3,3.7-0.8c1.2-0.5,2.2-1.2,3.1-2.1s1.6-1.9,2.1-3s0.8-2.4,0.8-3.7v-28.8h9.6v28.8H93.2z"/>
	<path class="st1" d="M154.4-36.4h-9.6v-34.3c0-0.7-0.1-1.3-0.4-1.9c-0.3-0.6-0.6-1.1-1-1.5s-0.9-0.8-1.5-1s-1.2-0.4-1.9-0.4
		s-1.3,0.1-1.9,0.4c-0.6,0.2-1.1,0.6-1.5,1s-0.8,0.9-1,1.5s-0.4,1.2-0.4,1.9v34.3h-9.6v-34.3c0-0.7-0.1-1.3-0.4-1.9
		c-0.2-0.6-0.6-1.1-1-1.5s-0.9-0.8-1.5-1s-1.2-0.4-1.9-0.4s-1.3,0.1-1.9,0.4c-0.6,0.2-1.1,0.6-1.5,1s-0.8,0.9-1,1.5
		s-0.4,1.2-0.4,1.9v34.3h-9.6v-34.3c0-2,0.4-3.9,1.1-5.6c0.7-1.8,1.8-3.3,3.1-4.6s2.8-2.3,4.6-3.1s3.6-1.1,5.6-1.1
		c1.8,0,3.5,0.3,5.2,1c1.7,0.6,3.1,1.6,4.5,2.8c1.3-1.2,2.8-2.1,4.4-2.8c1.6-0.6,3.4-1,5.1-1c2,0,3.9,0.4,5.6,1.1
		c1.8,0.7,3.3,1.8,4.6,3.1c1.3,1.3,2.3,2.8,3.1,4.6c0.7,1.8,1.1,3.6,1.1,5.6L154.4-36.4L154.4-36.4z"/>
	<path class="st1" d="M215.8-36.4h-9.6v-34.3c0-0.7-0.1-1.3-0.4-1.9c-0.3-0.6-0.6-1.1-1-1.5s-0.9-0.8-1.5-1s-1.2-0.4-1.9-0.4
		s-1.3,0.1-1.9,0.4c-0.6,0.2-1.1,0.6-1.5,1s-0.8,0.9-1,1.5s-0.4,1.2-0.4,1.9v34.3H187v-34.3c0-0.7-0.1-1.3-0.4-1.9
		c-0.2-0.6-0.6-1.1-1-1.5s-0.9-0.8-1.5-1s-1.2-0.4-1.9-0.4s-1.3,0.1-1.9,0.4c-0.6,0.2-1.1,0.6-1.5,1s-0.8,0.9-1,1.5
		s-0.4,1.2-0.4,1.9v34.3h-9.6v-34.3c0-2,0.4-3.9,1.1-5.6c0.7-1.8,1.8-3.3,3.1-4.6s2.8-2.3,4.6-3.1s3.6-1.1,5.6-1.1
		c1.8,0,3.5,0.3,5.2,1c1.7,0.6,3.1,1.6,4.5,2.8c1.3-1.2,2.8-2.1,4.4-2.8c1.6-0.6,3.4-1,5.1-1c2,0,3.9,0.4,5.6,1.1
		c1.8,0.7,3.3,1.8,4.6,3.1c1.3,1.3,2.3,2.8,3.1,4.6c0.7,1.8,1.1,3.6,1.1,5.6L215.8-36.4L215.8-36.4z"/>
	<path class="st1" d="M250.7-36.4h-9.6v-15c-2.1-0.5-4.1-1.4-5.8-2.6c-1.8-1.2-3.3-2.6-4.6-4.2s-2.3-3.5-3-5.5s-1.1-4.1-1.1-6.3
		v-14.4h9.6V-70c0,1.3,0.3,2.6,0.8,3.7c0.5,1.2,1.2,2.2,2.1,3.1c0.9,0.9,1.9,1.6,3.1,2.1c1.2,0.5,2.4,0.8,3.7,0.8s2.6-0.3,3.7-0.8
		c1.2-0.5,2.2-1.2,3.1-2.1s1.6-1.9,2.1-3.1s0.8-2.4,0.8-3.7v-14.4h9.6V-70c0,2.2-0.4,4.3-1.1,6.3s-1.7,3.8-3,5.5
		c-1.3,1.6-2.8,3.1-4.6,4.2s-3.7,2-5.8,2.6L250.7-36.4L250.7-36.4z"/>
	<path class="st1" d="M441.6-46h24v-38.4h9.6v48h-33.6V-46z"/>
	<path class="st1" d="M387-66.8c0.6-2.1,1.4-4.1,2.5-5.9s2.4-3.5,3.9-5s3.2-2.8,5-3.9s3.8-1.9,5.9-2.5s4.3-0.9,6.6-0.9
		c2.3,0,4.5,0.3,6.6,0.9s4.1,1.4,5.9,2.5s3.5,2.4,5,3.9s2.8,3.2,3.9,5s1.9,3.8,2.5,5.9s0.9,4.3,0.9,6.6c0,2.3-0.3,4.5-0.9,6.6
		s-1.4,4.1-2.5,5.9s-2.4,3.5-3.9,5s-3.2,2.8-5,3.9s-3.8,1.9-5.9,2.5s-4.3,0.9-6.6,0.9c-2.3,0-4.5-0.3-6.6-0.9s-4.1-1.4-5.9-2.5
		s-3.5-2.4-5-3.9s-2.8-3.2-3.9-5s-1.9-3.8-2.5-5.9s-0.9-4.3-0.9-6.6S386.4-64.7,387-66.8z M396.8-54.3c0.8,1.8,1.9,3.5,3.3,4.8
		c1.4,1.4,3,2.5,4.9,3.3s3.8,1.2,5.9,1.2s4.1-0.4,6-1.2c1.9-0.8,3.5-1.9,4.9-3.3s2.5-3,3.3-4.8s1.2-3.8,1.2-5.9s-0.4-4.1-1.2-5.9
		c-0.8-1.9-1.9-3.5-3.3-4.9s-3-2.5-4.9-3.3s-3.8-1.2-6-1.2c-2.1,0-4.1,0.4-5.9,1.2c-1.9,0.8-3.5,1.9-4.9,3.3s-2.5,3-3.3,4.9
		s-1.2,3.8-1.2,5.9C395.6-58.1,396-56.1,396.8-54.3z"/>
	<path class="st1" d="M336.4-60.2h9.3v13.7c1,0.5,2.1,0.9,3.2,1.2c1.1,0.3,2.3,0.4,3.5,0.4c2.1,0,4.1-0.4,5.9-1.2
		c1.8-0.8,3.5-1.9,4.8-3.3c1.4-1.4,2.5-3,3.3-4.9s1.2-3.8,1.2-6c0-2.1-0.4-4.1-1.2-5.9c-0.8-1.8-1.9-3.5-3.3-4.8s-3-2.5-4.8-3.3
		s-3.8-1.2-5.9-1.2s-4.1,0.4-6,1.3c-1.9,0.8-3.6,2-5,3.5l-5-8.4c2.2-1.9,4.7-3.4,7.5-4.4c2.7-1,5.6-1.5,8.6-1.5
		c2.3,0,4.5,0.3,6.6,0.9s4.1,1.4,5.9,2.5s3.5,2.4,5,3.9s2.8,3.2,3.9,5s1.9,3.8,2.5,5.9s0.9,4.3,0.9,6.6c0,2.3-0.3,4.5-0.9,6.6
		s-1.4,4.1-2.5,5.9s-2.4,3.5-3.9,5s-3.2,2.8-5,3.9s-3.8,1.9-5.9,2.5s-4.3,0.9-6.6,0.9c-3,0-5.8-0.5-8.6-1.5c-2.7-1-5.2-2.5-7.5-4.4
		V-60.2z"/>
	<path class="st1" d="M277.7-66.8c0.6-2.1,1.4-4.1,2.5-5.9s2.4-3.5,3.9-5s3.2-2.8,5-3.9s3.8-1.9,5.9-2.5s4.3-0.9,6.6-0.9
		c2.3,0,4.5,0.3,6.6,0.9s4.1,1.4,5.9,2.5s3.5,2.4,5,3.9s2.8,3.2,3.9,5s1.9,3.8,2.5,5.9s0.9,4.3,0.9,6.6c0,2.3-0.3,4.5-0.9,6.6
		s-1.4,4.1-2.5,5.9s-2.4,3.5-3.9,5s-3.2,2.8-5,3.9s-3.8,1.9-5.9,2.5s-4.3,0.9-6.6,0.9c-2.3,0-4.5-0.3-6.6-0.9s-4.1-1.4-5.9-2.5
		s-3.5-2.4-5-3.9s-2.8-3.2-3.9-5s-1.9-3.8-2.5-5.9s-0.9-4.3-0.9-6.6C276.8-62.5,277.1-64.7,277.7-66.8z M287.6-54.3
		c0.8,1.8,1.9,3.5,3.3,4.8c1.4,1.4,3,2.5,4.9,3.3s3.8,1.2,5.9,1.2s4.1-0.4,6-1.2c1.9-0.8,3.5-1.9,4.9-3.3s2.5-3,3.3-4.8
		s1.2-3.8,1.2-5.9s-0.4-4.1-1.2-5.9c-0.8-1.9-1.9-3.5-3.3-4.9s-3-2.5-4.9-3.3s-3.8-1.2-6-1.2c-2.1,0-4.1,0.4-5.9,1.2
		c-1.9,0.8-3.5,1.9-4.9,3.3s-2.5,3-3.3,4.9s-1.2,3.8-1.2,5.9C286.4-58.1,286.8-56.1,287.6-54.3z"/>
</g>
<g>
	<linearGradient id="SVGID_1_" gradientUnits="userSpaceOnUse" x1="91.1187" y1="100" x2="202.7187" y2="100">
		<stop  offset="0" style="stop-color:#14C5ED"/>
		<stop  offset="1" style="stop-color:#6AFFF0"/>
	</linearGradient>
	<path class="st2" d="M201.6,83.6c-0.8-2.7-1.8-5.3-3.2-7.6s-3.1-4.5-5-6.5c-2-2-4.1-3.6-6.5-5c-2.4-1.4-4.9-2.5-7.6-3.2
		c-2.7-0.8-5.5-1.1-8.5-1.1H123c-2.9,0-5.8,0.4-8.5,1.1c-2.7,0.8-5.2,1.8-7.6,3.2c-2.4,1.4-4.5,3-6.5,5s-3.6,4.1-5,6.5
		s-2.5,4.9-3.2,7.6c-0.8,2.7-1.1,5.5-1.1,8.5c0,2.7,0.3,5.4,1,8c0.7,2.6,1.7,5,2.9,7.4c1.3,2.3,2.9,4.5,4.7,6.5
		c1.5,1.6,3.1,3,4.9,4.2c0.8,0.5,1,1.5,0.7,2.4l-7,16.5c-0.6,1.3,0.4,2.8,1.8,2.8h12.6c0.8,0,1.5-0.5,1.8-1.2l5.9-13.6
		c0.3-0.7,1-1.2,1.8-1.2l14.5,0.1c1.1,0,2,0.9,2,2v12c0,1.1,0.9,2,2,2h12c1.1,0,2-0.9,2-2v-12c0-1.1,0.9-2,2-2l14.5-0.1
		c0.8,0,1.5,0.5,1.8,1.2l5.9,13.6c0.3,0.7,1,1.2,1.8,1.2h12.6c1.4,0,2.4-1.5,1.8-2.8l-7-16.5c-0.4-0.9-0.1-1.9,0.7-2.4
		c1.8-1.2,3.4-2.7,4.9-4.2c1.9-2,3.4-4.1,4.7-6.5c1.3-2.3,2.3-4.8,3-7.4c0.7-2.6,1-5.3,1-8C202.7,89.1,202.3,86.3,201.6,83.6z
		 M138.9,106c0,1.1-0.9,2-2,2h-14c-2.2,0-4.2-0.4-6.2-1.3c-1.9-0.8-3.6-2-5.1-3.4c-1.5-1.5-2.6-3.1-3.4-5.1c-0.8-2-1.3-4-1.3-6.2
		c0-2.2,0.4-4.3,1.3-6.2c0.8-1.9,2-3.6,3.4-5.1c1.4-1.5,3.1-2.6,5.1-3.4c1.9-0.8,4-1.3,6.2-1.3h14c1.1,0,2,0.9,2,2V106z M185.5,98.3
		c-0.8,2-2,3.6-3.4,5.1c-1.5,1.4-3.1,2.6-5.1,3.4c-1.9,0.8-4,1.3-6.2,1.3h-14c-1.1,0-2-0.9-2-2V78.1c0-1.1,0.9-2,2-2h14
		c2.2,0,4.2,0.4,6.2,1.3c1.9,0.8,3.6,2,5.1,3.4c1.4,1.5,2.6,3.1,3.4,5.1c0.8,1.9,1.3,4,1.3,6.2C186.8,94.2,186.3,96.3,185.5,98.3z"
		/>
	<path class="st3" d="M391.3,137.3h-5.5v-27.7h11.1c1,0,2,0.1,2.9,0.4c0.9,0.3,1.8,0.6,2.6,1.1c0.8,0.5,1.6,1.1,2.2,1.7
		c0.7,0.7,1.3,1.4,1.7,2.3c0.5,0.8,0.9,1.7,1.1,2.6c0.3,0.9,0.4,1.9,0.4,2.9c0,1-0.1,1.9-0.4,2.8c-0.2,0.9-0.6,1.8-1,2.6
		c-0.4,0.8-1,1.6-1.6,2.2c-0.6,0.7-1.4,1.3-2.2,1.8l3.1,7.2h-5.9l-2.4-5.6l-6.2,0V137.3z M391.3,115.2v11.1h5.5
		c0.8,0,1.5-0.1,2.1-0.4c0.7-0.3,1.3-0.7,1.8-1.2c0.5-0.5,0.9-1.1,1.2-1.8c0.3-0.7,0.4-1.4,0.4-2.2c0-0.8-0.1-1.5-0.4-2.2
		c-0.3-0.7-0.7-1.3-1.2-1.8c-0.5-0.5-1.1-0.9-1.8-1.2c-0.7-0.3-1.4-0.4-2.1-0.4H391.3z"/>
	<g>
		<g>
			<path class="st3" d="M225.4,137.3h-5.5v-22.2h-8.3v-5.5h22.2v5.5h-8.3V137.3z"/>
			<path class="st3" d="M292.2,137.3h-5.5v-5.5h-11.1v5.5H270v-16.6c0-1.5,0.3-3,0.9-4.3c0.6-1.3,1.4-2.5,2.4-3.5
				c1-1,2.2-1.8,3.5-2.4c1.3-0.6,2.8-0.9,4.3-0.9s3,0.3,4.3,0.9c1.3,0.6,2.5,1.4,3.5,2.4c1,1,1.8,2.2,2.4,3.5
				c0.6,1.3,0.9,2.8,0.9,4.3V137.3z M286.6,126.3v-5.5c0-0.8-0.1-1.5-0.4-2.2c-0.3-0.7-0.7-1.3-1.2-1.8c-0.5-0.5-1.1-0.9-1.8-1.2
				c-0.7-0.3-1.4-0.4-2.2-0.4s-1.5,0.1-2.2,0.4c-0.7,0.3-1.3,0.7-1.8,1.2c-0.5,0.5-0.9,1.1-1.2,1.8c-0.3,0.7-0.4,1.4-0.4,2.2v5.5
				H286.6z"/>
			<path class="st3" d="M323,134.5c-1.3,1.1-2.7,2-4.3,2.5c-1.6,0.6-3.3,0.9-5,0.9c-1.3,0-2.6-0.2-3.8-0.5c-1.2-0.3-2.4-0.8-3.4-1.4
				c-1.1-0.6-2-1.4-2.9-2.3c-0.9-0.9-1.6-1.8-2.3-2.9c-0.6-1.1-1.1-2.2-1.4-3.4c-0.3-1.2-0.5-2.5-0.5-3.8c0-1.3,0.2-2.6,0.5-3.8
				c0.3-1.2,0.8-2.4,1.4-3.4c0.6-1.1,1.4-2,2.3-2.9s1.8-1.6,2.9-2.3c1.1-0.6,2.2-1.1,3.4-1.4c1.2-0.3,2.5-0.5,3.8-0.5
				c1.7,0,3.4,0.3,5,0.9c1.6,0.6,3,1.4,4.3,2.6l-2.9,4.8c-0.8-0.9-1.8-1.5-2.9-2c-1.1-0.5-2.3-0.7-3.5-0.7c-1.2,0-2.4,0.2-3.4,0.7
				c-1.1,0.5-2,1.1-2.8,1.9c-0.8,0.8-1.4,1.7-1.9,2.8c-0.5,1.1-0.7,2.2-0.7,3.4c0,1.2,0.2,2.3,0.7,3.4c0.5,1.1,1.1,2,1.9,2.8
				c0.8,0.8,1.7,1.4,2.8,1.9c1.1,0.5,2.2,0.7,3.4,0.7c1.2,0,2.4-0.2,3.5-0.7c1.1-0.5,2.1-1.1,2.9-2L323,134.5z"/>
			<path class="st3" d="M335.8,137.3h-5.5v-27.7h5.5v13.9l10.3-13.9h6.3l-8.8,11.7l8.8,16h-6.3l-6.1-11.2l-4.2,5.7V137.3z"/>
			<path class="st3" d="M377.9,137.3h-19v-27.7h19v5.5h-13.4v5.5h9.1v5.5h-9.1v5.5h13.4V137.3z"/>
			<path class="st3" d="M257.2,131.8l-6.2,0l-2.4,5.6h-5.9l3.1-7.2c-0.8-0.5-1.5-1.1-2.2-1.8c-0.6-0.7-1.2-1.4-1.6-2.2
				c-0.4-0.8-0.8-1.7-1-2.6c-0.2-0.9-0.4-1.8-0.4-2.8c0-1,0.1-2,0.4-2.9c0.3-0.9,0.6-1.8,1.1-2.6c0.5-0.8,1.1-1.6,1.7-2.3
				c0.7-0.7,1.4-1.3,2.2-1.7c0.8-0.5,1.7-0.9,2.6-1.1c0.9-0.3,1.9-0.4,2.9-0.4h11.1v27.7h-5.5V131.8z M251.6,115.2
				c-0.8,0-1.5,0.1-2.1,0.4c-0.7,0.3-1.3,0.7-1.8,1.2c-0.5,0.5-0.9,1.1-1.2,1.8c-0.3,0.7-0.4,1.4-0.4,2.2c0,0.8,0.1,1.5,0.4,2.2
				c0.3,0.7,0.7,1.3,1.2,1.8c0.5,0.5,1.1,0.9,1.8,1.2c0.7,0.3,1.4,0.4,2.1,0.4h5.5v-11.1H251.6z"/>
		</g>
	</g>
	<g>
		<path class="st3" d="M242.4,93.9c-1.7,1.4-3.5,2.5-5.6,3.3s-4.2,1.1-6.4,1.1c-1.7,0-3.3-0.2-4.9-0.7c-1.6-0.4-3-1.1-4.4-1.9
			c-1.4-0.8-2.6-1.8-3.7-2.9c-1.1-1.1-2.1-2.4-2.9-3.7c-0.8-1.4-1.4-2.8-1.9-4.4c-0.4-1.6-0.7-3.2-0.7-4.9s0.2-3.3,0.7-4.9
			c0.4-1.6,1.1-3,1.9-4.4c0.8-1.4,1.8-2.6,2.9-3.7c1.1-1.1,2.4-2.1,3.7-2.9c1.4-0.8,2.8-1.4,4.4-1.9c1.6-0.4,3.2-0.7,4.9-0.7
			c2.2,0,4.3,0.4,6.4,1.1c2,0.8,3.9,1.8,5.6,3.3l-3.7,6.2c-1.1-1.1-2.3-2-3.7-2.6c-1.4-0.6-2.9-0.9-4.5-0.9s-3,0.3-4.4,0.9
			c-1.4,0.6-2.6,1.4-3.6,2.4s-1.8,2.2-2.4,3.6c-0.6,1.4-0.9,2.8-0.9,4.4c0,1.6,0.3,3.1,0.9,4.4c0.6,1.4,1.4,2.6,2.4,3.6
			c1,1,2.2,1.8,3.6,2.4c1.4,0.6,2.8,0.9,4.4,0.9c0.9,0,1.8-0.1,2.6-0.3c0.8-0.2,1.7-0.5,2.4-0.9V79.8h6.9V93.9z"/>
		<path class="st3" d="M286.4,83.2c0,2-0.4,3.8-1.1,5.6c-0.7,1.7-1.8,3.3-3.1,4.5c-1.3,1.3-2.8,2.3-4.6,3.1
			c-1.7,0.7-3.6,1.1-5.6,1.1c-2,0-3.8-0.4-5.6-1.1c-1.7-0.7-3.3-1.8-4.5-3.1s-2.3-2.8-3.1-4.5c-0.7-1.7-1.1-3.6-1.1-5.6V61.7h7.1
			v21.5c0,1,0.2,1.9,0.6,2.8c0.4,0.9,0.9,1.6,1.5,2.3c0.6,0.6,1.4,1.2,2.3,1.5c0.9,0.4,1.8,0.6,2.8,0.6c1,0,1.9-0.2,2.8-0.6
			c0.9-0.4,1.6-0.9,2.3-1.5c0.6-0.6,1.2-1.4,1.5-2.3c0.4-0.9,0.6-1.8,0.6-2.8V61.7h7.2V83.2z"/>
		<path class="st3" d="M327.4,97.5h-24.5V61.7h24.5v7.2H310V76h11.8v7.2H310v7.1h17.4V97.5z"/>
		<path class="st3" d="M340.1,72.4c0-1.5,0.3-2.9,0.8-4.2c0.6-1.3,1.3-2.4,2.3-3.4s2.1-1.7,3.4-2.3c1.3-0.6,2.7-0.8,4.2-0.8h16.4
			v7.2h-16.4c-0.5,0-1,0.1-1.4,0.3c-0.4,0.2-0.8,0.4-1.1,0.8s-0.6,0.7-0.8,1.1c-0.2,0.4-0.3,0.9-0.3,1.4s0.1,1,0.3,1.4
			c0.2,0.4,0.4,0.8,0.8,1.1c0.3,0.3,0.7,0.6,1.1,0.8c0.4,0.2,0.9,0.3,1.4,0.3h7.2c1.5,0,2.9,0.3,4.2,0.8c1.3,0.6,2.4,1.3,3.4,2.3
			c1,1,1.7,2.1,2.3,3.4c0.6,1.3,0.8,2.7,0.8,4.2s-0.3,2.9-0.8,4.2c-0.6,1.3-1.3,2.4-2.3,3.4c-1,1-2.1,1.7-3.4,2.3s-2.7,0.8-4.2,0.8
			h-15.9v-7.2H358c0.5,0,1-0.1,1.4-0.3c0.4-0.2,0.8-0.4,1.1-0.8c0.3-0.3,0.6-0.7,0.8-1.1c0.2-0.4,0.3-0.9,0.3-1.4s-0.1-1-0.3-1.4
			c-0.2-0.4-0.4-0.8-0.8-1.1c-0.3-0.3-0.7-0.6-1.1-0.8s-0.9-0.3-1.4-0.3h-7.2c-1.5,0-2.9-0.3-4.2-0.8c-1.3-0.6-2.4-1.3-3.4-2.3
			c-1-1-1.7-2.1-2.3-3.4C340.4,75.3,340.1,73.9,340.1,72.4z"/>
		<path class="st3" d="M398.2,97.5H391V68.9h-10.8v-7.2h28.6v7.2h-10.7V97.5z"/>
	</g>
</g>
<g>
	<path class="st4" d="M138,155.6l-2.8,8.4h-1.7l-2.7-8.4h1.9l1.7,5.6l1.7-5.6H138z"/>
	<path class="st4" d="M142.8,164h-1.7v-8.4h1.7V164z"/>
	<path class="st4" d="M146.3,158.1c0-0.3,0.1-0.7,0.2-1s0.3-0.6,0.5-0.8s0.5-0.4,0.8-0.5s0.6-0.2,1-0.2h3.9v1.7h-3.9
		c-0.1,0-0.2,0-0.3,0.1s-0.2,0.1-0.3,0.2s-0.1,0.2-0.2,0.3s-0.1,0.2-0.1,0.3s0,0.2,0.1,0.3s0.1,0.2,0.2,0.3s0.2,0.1,0.3,0.2
		s0.2,0.1,0.3,0.1h1.7c0.3,0,0.7,0.1,1,0.2s0.6,0.3,0.8,0.5s0.4,0.5,0.5,0.8s0.2,0.6,0.2,1s-0.1,0.7-0.2,1s-0.3,0.6-0.5,0.8
		s-0.5,0.4-0.8,0.5s-0.6,0.2-1,0.2h-3.7v-1.7h3.7c0.1,0,0.2,0,0.3-0.1s0.2-0.1,0.3-0.2s0.1-0.2,0.2-0.3s0.1-0.2,0.1-0.3
		s0-0.2-0.1-0.3s-0.1-0.2-0.2-0.3s-0.2-0.1-0.3-0.2s-0.2-0.1-0.3-0.1h-1.7c-0.3,0-0.7-0.1-1-0.2s-0.6-0.3-0.8-0.5s-0.4-0.5-0.5-0.8
		S146.3,158.5,146.3,158.1z"/>
	<path class="st4" d="M158.2,164h-1.7v-8.4h1.7V164z"/>
	<path class="st4" d="M165.7,164H164v-6.7h-2.5v-1.7h6.7v1.7h-2.5V164z"/>
	<path class="st4" d="M179.5,159.8c0,0.4-0.1,0.8-0.2,1.2s-0.2,0.7-0.4,1s-0.4,0.6-0.7,0.9s-0.6,0.5-0.9,0.7s-0.7,0.3-1,0.4
		s-0.8,0.2-1.2,0.2s-0.8-0.1-1.2-0.2s-0.7-0.3-1-0.4s-0.6-0.4-0.9-0.7s-0.5-0.6-0.7-0.9s-0.3-0.7-0.4-1s-0.2-0.8-0.2-1.2
		s0.1-0.8,0.2-1.2s0.3-0.7,0.4-1s0.4-0.6,0.7-0.9s0.6-0.5,0.9-0.7s0.7-0.3,1-0.4s0.8-0.2,1.2-0.2s0.8,0.1,1.2,0.2s0.7,0.2,1,0.4
		s0.6,0.4,0.9,0.7s0.5,0.6,0.7,0.9s0.3,0.7,0.4,1S179.5,159.4,179.5,159.8z M177.8,159.8c0-0.4-0.1-0.7-0.2-1s-0.3-0.6-0.6-0.8
		s-0.5-0.4-0.8-0.6s-0.7-0.2-1-0.2c-0.4,0-0.7,0.1-1,0.2s-0.6,0.3-0.8,0.6s-0.4,0.5-0.6,0.8s-0.2,0.7-0.2,1s0.1,0.7,0.2,1
		s0.3,0.6,0.6,0.8s0.5,0.4,0.8,0.6s0.7,0.2,1,0.2c0.4,0,0.7-0.1,1-0.2s0.6-0.3,0.8-0.6s0.4-0.5,0.6-0.8S177.8,160.2,177.8,159.8z"/>
	<path class="st4" d="M184.7,164H183v-8.4h3.4c0.3,0,0.6,0,0.9,0.1s0.6,0.2,0.8,0.3s0.5,0.3,0.7,0.5s0.4,0.4,0.5,0.7
		s0.3,0.5,0.3,0.8s0.1,0.6,0.1,0.9c0,0.3,0,0.6-0.1,0.8s-0.2,0.5-0.3,0.8s-0.3,0.5-0.5,0.7s-0.4,0.4-0.7,0.5l0.9,2.2h-1.8l-0.7-1.7
		l-1.9,0V164z M184.7,157.3v3.4h1.7c0.2,0,0.4,0,0.7-0.1s0.4-0.2,0.5-0.4s0.3-0.3,0.4-0.5s0.1-0.4,0.1-0.7s0-0.4-0.1-0.7
		s-0.2-0.4-0.4-0.5s-0.3-0.3-0.5-0.4s-0.4-0.1-0.7-0.1H184.7z"/>
	<path class="st4" d="M207.3,164h-1.7v-6c0-0.1,0-0.2-0.1-0.3s-0.1-0.2-0.2-0.3s-0.2-0.1-0.3-0.2s-0.2-0.1-0.3-0.1s-0.2,0-0.3,0.1
		s-0.2,0.1-0.3,0.2s-0.1,0.2-0.2,0.3s-0.1,0.2-0.1,0.3v6h-1.7v-6c0-0.1,0-0.2-0.1-0.3s-0.1-0.2-0.2-0.3s-0.2-0.1-0.3-0.2
		s-0.2-0.1-0.3-0.1s-0.2,0-0.3,0.1s-0.2,0.1-0.3,0.2s-0.1,0.2-0.2,0.3s-0.1,0.2-0.1,0.3v6h-1.7v-6c0-0.3,0.1-0.7,0.2-1
		s0.3-0.6,0.5-0.8s0.5-0.4,0.8-0.5s0.6-0.2,1-0.2c0.3,0,0.6,0.1,0.9,0.2s0.5,0.3,0.8,0.5c0.2-0.2,0.5-0.4,0.8-0.5s0.6-0.2,0.9-0.2
		c0.3,0,0.7,0.1,1,0.2s0.6,0.3,0.8,0.5s0.4,0.5,0.5,0.8s0.2,0.6,0.2,1V164z"/>
	<path class="st4" d="M217.8,164h-1.7v-1.7h-3.4v1.7h-1.7v-5c0-0.5,0.1-0.9,0.3-1.3s0.4-0.8,0.7-1.1s0.7-0.5,1.1-0.7
		s0.8-0.3,1.3-0.3s0.9,0.1,1.3,0.3s0.8,0.4,1.1,0.7s0.5,0.7,0.7,1.1s0.3,0.8,0.3,1.3V164z M216.1,160.6V159c0-0.2,0-0.4-0.1-0.7
		s-0.2-0.4-0.4-0.5s-0.3-0.3-0.5-0.4s-0.4-0.1-0.7-0.1s-0.4,0-0.7,0.1s-0.4,0.2-0.5,0.4s-0.3,0.3-0.4,0.5s-0.1,0.4-0.1,0.7v1.7
		H216.1z"/>
	<path class="st4" d="M228.4,164h-1.8l-3.2-5.5v5.5h-1.7v-8.4h1.8l3.2,5.5v-5.5h1.7V164z"/>
	<path class="st4" d="M239,164h-1.7v-1.7h-3.4v1.7h-1.7v-5c0-0.5,0.1-0.9,0.3-1.3s0.4-0.8,0.7-1.1s0.7-0.5,1.1-0.7s0.8-0.3,1.3-0.3
		s0.9,0.1,1.3,0.3s0.8,0.4,1.1,0.7s0.5,0.7,0.7,1.1s0.3,0.8,0.3,1.3V164z M237.3,160.6V159c0-0.2,0-0.4-0.1-0.7s-0.2-0.4-0.4-0.5
		s-0.3-0.3-0.5-0.4s-0.4-0.1-0.7-0.1s-0.4,0-0.7,0.1s-0.4,0.2-0.5,0.4s-0.3,0.3-0.4,0.5s-0.1,0.4-0.1,0.7v1.7H237.3z"/>
	<path class="st4" d="M249.5,163.2c-0.4,0.3-0.8,0.6-1.3,0.8s-1,0.3-1.5,0.3c-0.4,0-0.8-0.1-1.2-0.2s-0.7-0.3-1-0.4
		s-0.6-0.4-0.9-0.7s-0.5-0.6-0.7-0.9s-0.3-0.7-0.4-1s-0.2-0.8-0.2-1.2s0.1-0.8,0.2-1.1s0.2-0.7,0.4-1s0.4-0.6,0.7-0.9
		s0.6-0.5,0.9-0.7s0.7-0.3,1-0.4s0.8-0.2,1.2-0.2c0.5,0,1,0.1,1.5,0.3s0.9,0.4,1.3,0.8l-0.9,1.5c-0.3-0.3-0.5-0.5-0.9-0.6
		s-0.7-0.2-1-0.2s-0.7,0.1-1,0.2s-0.6,0.3-0.8,0.6s-0.4,0.5-0.6,0.8s-0.2,0.7-0.2,1c0,0.4,0.1,0.7,0.2,1s0.3,0.6,0.6,0.8
		s0.5,0.4,0.8,0.6s0.7,0.2,1,0.2c0.2,0,0.4,0,0.6-0.1s0.4-0.1,0.6-0.2v-2.4h1.6V163.2z"/>
	<path class="st4" d="M259,164h-5.8v-8.4h5.8v1.7h-4.1v1.7h2.8v1.7h-2.8v1.7h4.1V164z"/>
	<path class="st4" d="M270.9,164h-1.7v-6c0-0.1,0-0.2-0.1-0.3s-0.1-0.2-0.2-0.3s-0.2-0.1-0.3-0.2s-0.2-0.1-0.3-0.1s-0.2,0-0.3,0.1
		s-0.2,0.1-0.3,0.2s-0.1,0.2-0.2,0.3s-0.1,0.2-0.1,0.3v6h-1.7v-6c0-0.1,0-0.2-0.1-0.3s-0.1-0.2-0.2-0.3s-0.2-0.1-0.3-0.2
		s-0.2-0.1-0.3-0.1s-0.2,0-0.3,0.1s-0.2,0.1-0.3,0.2s-0.1,0.2-0.2,0.3s-0.1,0.2-0.1,0.3v6h-1.7v-6c0-0.3,0.1-0.7,0.2-1
		s0.3-0.6,0.5-0.8s0.5-0.4,0.8-0.5s0.6-0.2,1-0.2c0.3,0,0.6,0.1,0.9,0.2s0.5,0.3,0.8,0.5c0.2-0.2,0.5-0.4,0.8-0.5s0.6-0.2,0.9-0.2
		c0.3,0,0.7,0.1,1,0.2s0.6,0.3,0.8,0.5s0.4,0.5,0.5,0.8s0.2,0.6,0.2,1V164z"/>
	<path class="st4" d="M280.6,164h-5.8v-8.4h5.8v1.7h-4.1v1.7h2.8v1.7h-2.8v1.7h4.1V164z"/>
	<path class="st4" d="M290.9,164h-1.8l-3.2-5.5v5.5h-1.7v-8.4h1.8l3.2,5.5v-5.5h1.7V164z"/>
	<path class="st4" d="M298.4,164h-1.7v-6.7h-2.5v-1.7h6.7v1.7h-2.5V164z"/>
	<path class="st4" d="M309.4,158.1c0-0.3,0.1-0.7,0.2-1s0.3-0.6,0.5-0.8s0.5-0.4,0.8-0.5s0.6-0.2,1-0.2h3.9v1.7h-3.9
		c-0.1,0-0.2,0-0.3,0.1s-0.2,0.1-0.3,0.2s-0.1,0.2-0.2,0.3s-0.1,0.2-0.1,0.3s0,0.2,0.1,0.3s0.1,0.2,0.2,0.3s0.2,0.1,0.3,0.2
		s0.2,0.1,0.3,0.1h1.7c0.3,0,0.7,0.1,1,0.2s0.6,0.3,0.8,0.5s0.4,0.5,0.5,0.8s0.2,0.6,0.2,1s-0.1,0.7-0.2,1s-0.3,0.6-0.5,0.8
		s-0.5,0.4-0.8,0.5s-0.6,0.2-1,0.2h-3.7v-1.7h3.7c0.1,0,0.2,0,0.3-0.1s0.2-0.1,0.3-0.2s0.1-0.2,0.2-0.3s0.1-0.2,0.1-0.3
		s0-0.2-0.1-0.3s-0.1-0.2-0.2-0.3s-0.2-0.1-0.3-0.2s-0.2-0.1-0.3-0.1h-1.7c-0.3,0-0.7-0.1-1-0.2s-0.6-0.3-0.8-0.5s-0.4-0.5-0.5-0.8
		S309.4,158.5,309.4,158.1z"/>
	<path class="st4" d="M323.4,164h-1.7v-2.6c-0.4-0.1-0.7-0.2-1-0.5s-0.6-0.5-0.8-0.7s-0.4-0.6-0.5-1s-0.2-0.7-0.2-1.1v-2.5h1.7v2.5
		c0,0.2,0,0.4,0.1,0.7s0.2,0.4,0.4,0.5s0.3,0.3,0.5,0.4s0.4,0.1,0.7,0.1s0.4,0,0.7-0.1s0.4-0.2,0.5-0.4s0.3-0.3,0.4-0.5
		s0.1-0.4,0.1-0.7v-2.5h1.7v2.5c0,0.4-0.1,0.8-0.2,1.1s-0.3,0.7-0.5,1s-0.5,0.5-0.8,0.7s-0.6,0.4-1,0.5V164z"/>
	<path class="st4" d="M329,158.1c0-0.3,0.1-0.7,0.2-1s0.3-0.6,0.5-0.8s0.5-0.4,0.8-0.5s0.6-0.2,1-0.2h3.9v1.7h-3.9
		c-0.1,0-0.2,0-0.3,0.1s-0.2,0.1-0.3,0.2s-0.1,0.2-0.2,0.3s-0.1,0.2-0.1,0.3s0,0.2,0.1,0.3s0.1,0.2,0.2,0.3s0.2,0.1,0.3,0.2
		s0.2,0.1,0.3,0.1h1.7c0.3,0,0.7,0.1,1,0.2s0.6,0.3,0.8,0.5s0.4,0.5,0.5,0.8s0.2,0.6,0.2,1s-0.1,0.7-0.2,1s-0.3,0.6-0.5,0.8
		s-0.5,0.4-0.8,0.5s-0.6,0.2-1,0.2h-3.7v-1.7h3.7c0.1,0,0.2,0,0.3-0.1s0.2-0.1,0.3-0.2s0.1-0.2,0.2-0.3s0.1-0.2,0.1-0.3
		s0-0.2-0.1-0.3s-0.1-0.2-0.2-0.3s-0.2-0.1-0.3-0.2s-0.2-0.1-0.3-0.1h-1.7c-0.3,0-0.7-0.1-1-0.2s-0.6-0.3-0.8-0.5s-0.4-0.5-0.5-0.8
		S329,158.5,329,158.1z"/>
	<path class="st4" d="M342.6,164H341v-6.7h-2.5v-1.7h6.7v1.7h-2.5V164z"/>
	<path class="st4" d="M354.2,164h-5.8v-8.4h5.8v1.7h-4.1v1.7h2.8v1.7h-2.8v1.7h4.1V164z"/>
	<path class="st4" d="M366.1,164h-1.7v-6c0-0.1,0-0.2-0.1-0.3s-0.1-0.2-0.2-0.3s-0.2-0.1-0.3-0.2s-0.2-0.1-0.3-0.1s-0.2,0-0.3,0.1
		s-0.2,0.1-0.3,0.2s-0.1,0.2-0.2,0.3s-0.1,0.2-0.1,0.3v6h-1.7v-6c0-0.1,0-0.2-0.1-0.3s-0.1-0.2-0.2-0.3s-0.2-0.1-0.3-0.2
		s-0.2-0.1-0.3-0.1s-0.2,0-0.3,0.1s-0.2,0.1-0.3,0.2s-0.1,0.2-0.2,0.3s-0.1,0.2-0.1,0.3v6h-1.7v-6c0-0.3,0.1-0.7,0.2-1
		s0.3-0.6,0.5-0.8s0.5-0.4,0.8-0.5s0.6-0.2,1-0.2c0.3,0,0.6,0.1,0.9,0.2s0.5,0.3,0.8,0.5c0.2-0.2,0.5-0.4,0.8-0.5s0.6-0.2,0.9-0.2
		c0.3,0,0.7,0.1,1,0.2s0.6,0.3,0.8,0.5s0.4,0.5,0.5,0.8s0.2,0.6,0.2,1V164z"/>
</g>
</svg>
