<?xml version="1.0" encoding="utf-8"?>
<!-- Generator: Adobe Illustrator 22.1.0, SVG Export Plug-In . SVG Version: 6.00 Build 0)  -->
<svg version="1.1" id="Layer_1" xmlns="http://www.w3.org/2000/svg" xmlns:xlink="http://www.w3.org/1999/xlink" x="0px" y="0px"
	 viewBox="0 0 500 200" style="enable-background:new 0 0 500 200;" xml:space="preserve">
<style type="text/css">
	.st0{fill:#29ABE2;}
</style>
<g>
	<path class="st0" d="M54.8,97.1c0,2.2-0.3,4.3-0.9,6.4c-0.6,2-1.4,4-2.4,5.7s-2.3,3.4-3.8,4.9s-3.1,2.7-4.9,3.8
		c-1.8,1-3.7,1.9-5.7,2.4c-2,0.6-4.2,0.9-6.4,0.9H16.3v-48h14.5c2.2,0,4.3,0.3,6.4,0.9c2,0.6,4,1.4,5.7,2.4c1.8,1.1,3.4,2.3,4.9,3.8
		c1.5,1.5,2.7,3.1,3.8,4.9s1.9,3.7,2.4,5.7C54.5,92.8,54.8,94.9,54.8,97.1z M45.2,97.1c0-2-0.4-3.9-1.1-5.6
		c-0.7-1.7-1.8-3.3-3.1-4.6c-1.3-1.3-2.8-2.3-4.6-3.1c-1.8-0.8-3.6-1.1-5.6-1.1H26v28.8h4.8c2,0,3.9-0.4,5.6-1.1
		c1.8-0.7,3.3-1.8,4.6-3.1c1.3-1.3,2.3-2.8,3.1-4.6C44.8,101,45.2,99.1,45.2,97.1z"/>
	<path class="st0" d="M104.2,101.9c0,2.7-0.5,5.2-1.5,7.5s-2.4,4.4-4.1,6.1c-1.7,1.7-3.8,3.1-6.1,4.1s-4.8,1.5-7.5,1.5
		c-2.7,0-5.2-0.5-7.5-1.5c-2.3-1-4.4-2.4-6.1-4.1c-1.7-1.7-3.1-3.8-4.1-6.1s-1.5-4.8-1.5-7.5V73.1h9.6v28.8c0,1.3,0.3,2.6,0.8,3.7
		s1.2,2.2,2.1,3c0.9,0.9,1.9,1.6,3.1,2.1c1.2,0.5,2.4,0.8,3.7,0.8c1.3,0,2.6-0.3,3.7-0.8c1.2-0.5,2.2-1.2,3.1-2.1
		c0.9-0.9,1.6-1.9,2.1-3s0.8-2.4,0.8-3.7V73.1h9.6V101.9z"/>
	<path class="st0" d="M165.4,121.1h-9.6V86.8c0-0.7-0.1-1.3-0.4-1.9c-0.3-0.6-0.6-1.1-1-1.5c-0.4-0.4-0.9-0.8-1.5-1
		c-0.6-0.2-1.2-0.4-1.9-0.4s-1.3,0.1-1.9,0.4c-0.6,0.2-1.1,0.6-1.5,1c-0.4,0.4-0.8,0.9-1,1.5c-0.2,0.6-0.4,1.2-0.4,1.9v34.3h-9.6
		V86.8c0-0.7-0.1-1.3-0.4-1.9c-0.2-0.6-0.6-1.1-1-1.5c-0.4-0.4-0.9-0.8-1.5-1c-0.6-0.2-1.2-0.4-1.9-0.4s-1.3,0.1-1.9,0.4
		c-0.6,0.2-1.1,0.6-1.5,1c-0.4,0.4-0.8,0.9-1,1.5c-0.2,0.6-0.4,1.2-0.4,1.9v34.3h-9.6V86.8c0-2,0.4-3.9,1.1-5.6
		c0.7-1.8,1.8-3.3,3.1-4.6s2.8-2.3,4.6-3.1s3.6-1.1,5.6-1.1c1.8,0,3.5,0.3,5.2,1c1.7,0.6,3.1,1.6,4.5,2.8c1.3-1.2,2.8-2.1,4.4-2.8
		c1.6-0.6,3.4-1,5.1-1c2,0,3.9,0.4,5.6,1.1c1.8,0.7,3.3,1.8,4.6,3.1c1.3,1.3,2.3,2.8,3.1,4.6c0.7,1.8,1.1,3.6,1.1,5.6V121.1z"/>
	<path class="st0" d="M226.8,121.1h-9.6V86.8c0-0.7-0.1-1.3-0.4-1.9c-0.3-0.6-0.6-1.1-1-1.5c-0.4-0.4-0.9-0.8-1.5-1
		c-0.6-0.2-1.2-0.4-1.9-0.4s-1.3,0.1-1.9,0.4c-0.6,0.2-1.1,0.6-1.5,1c-0.4,0.4-0.8,0.9-1,1.5c-0.2,0.6-0.4,1.2-0.4,1.9v34.3h-9.6
		V86.8c0-0.7-0.1-1.3-0.4-1.9c-0.2-0.6-0.6-1.1-1-1.5c-0.4-0.4-0.9-0.8-1.5-1c-0.6-0.2-1.2-0.4-1.9-0.4s-1.3,0.1-1.9,0.4
		c-0.6,0.2-1.1,0.6-1.5,1c-0.4,0.4-0.8,0.9-1,1.5c-0.2,0.6-0.4,1.2-0.4,1.9v34.3h-9.6V86.8c0-2,0.4-3.9,1.1-5.6
		c0.7-1.8,1.8-3.3,3.1-4.6s2.8-2.3,4.6-3.1s3.6-1.1,5.6-1.1c1.8,0,3.5,0.3,5.2,1c1.7,0.6,3.1,1.6,4.5,2.8c1.3-1.2,2.8-2.1,4.4-2.8
		c1.6-0.6,3.4-1,5.1-1c2,0,3.9,0.4,5.6,1.1c1.8,0.7,3.3,1.8,4.6,3.1c1.3,1.3,2.3,2.8,3.1,4.6c0.7,1.8,1.1,3.6,1.1,5.6V121.1z"/>
	<path class="st0" d="M261.7,121.1h-9.6v-15c-2.1-0.5-4.1-1.4-5.8-2.6c-1.8-1.2-3.3-2.6-4.6-4.2c-1.3-1.6-2.3-3.5-3-5.5
		c-0.7-2-1.1-4.1-1.1-6.3V73.1h9.6v14.4c0,1.3,0.3,2.6,0.8,3.7c0.5,1.2,1.2,2.2,2.1,3.1c0.9,0.9,1.9,1.6,3.1,2.1
		c1.2,0.5,2.4,0.8,3.7,0.8s2.6-0.3,3.7-0.8c1.2-0.5,2.2-1.2,3.1-2.1c0.9-0.9,1.6-1.9,2.1-3.1c0.5-1.2,0.8-2.4,0.8-3.7V73.1h9.6v14.4
		c0,2.2-0.4,4.3-1.1,6.3s-1.7,3.8-3,5.5c-1.3,1.6-2.8,3.1-4.6,4.2s-3.7,2-5.8,2.6V121.1z"/>
	<path class="st0" d="M321.5,121.1h-33.6v-48h9.6v38.4h24V121.1z"/>
	<path class="st0" d="M377,97.3c0,2.3-0.3,4.5-0.9,6.6c-0.6,2.1-1.4,4.1-2.5,5.9c-1.1,1.8-2.4,3.5-3.9,5c-1.5,1.5-3.2,2.8-5,3.9
		c-1.8,1.1-3.8,1.9-5.9,2.5c-2.1,0.6-4.3,0.9-6.6,0.9c-2.3,0-4.5-0.3-6.6-0.9c-2.1-0.6-4.1-1.4-5.9-2.5c-1.8-1.1-3.5-2.4-5-3.9
		c-1.5-1.5-2.8-3.2-3.9-5c-1.1-1.8-1.9-3.8-2.5-5.9c-0.6-2.1-0.9-4.3-0.9-6.6c0-2.3,0.3-4.5,0.9-6.6c0.6-2.1,1.4-4.1,2.5-5.9
		c1.1-1.8,2.4-3.5,3.9-5c1.5-1.5,3.2-2.8,5-3.9c1.8-1.1,3.8-1.9,5.9-2.5c2.1-0.6,4.3-0.9,6.6-0.9c2.3,0,4.5,0.3,6.6,0.9
		c2.1,0.6,4.1,1.4,5.9,2.5c1.8,1.1,3.5,2.4,5,3.9c1.5,1.5,2.8,3.2,3.9,5c1.1,1.8,1.9,3.8,2.5,5.9C376.7,92.8,377,95,377,97.3z
		 M367.5,97.3c0-2.1-0.4-4.1-1.2-5.9c-0.8-1.9-1.9-3.5-3.3-4.9c-1.4-1.4-3-2.5-4.9-3.3c-1.9-0.8-3.8-1.2-5.9-1.2
		c-2.1,0-4.1,0.4-6,1.2c-1.9,0.8-3.5,1.9-4.9,3.3c-1.4,1.4-2.5,3-3.3,4.9c-0.8,1.9-1.2,3.8-1.2,5.9c0,2.1,0.4,4.1,1.2,5.9
		c0.8,1.8,1.9,3.5,3.3,4.8c1.4,1.4,3,2.5,4.9,3.3c1.9,0.8,3.8,1.2,6,1.2c2.1,0,4.1-0.4,5.9-1.2c1.9-0.8,3.5-1.9,4.9-3.3
		c1.4-1.4,2.5-3,3.3-4.8C367.1,101.4,367.5,99.4,367.5,97.3z"/>
	<path class="st0" d="M426.7,116.3c-2.2,1.9-4.7,3.4-7.5,4.4c-2.7,1-5.6,1.5-8.6,1.5c-2.3,0-4.5-0.3-6.6-0.9
		c-2.1-0.6-4.1-1.4-5.9-2.5c-1.8-1.1-3.5-2.4-5-3.9c-1.5-1.5-2.8-3.2-3.9-5c-1.1-1.8-1.9-3.8-2.5-5.9c-0.6-2.1-0.9-4.3-0.9-6.6
		c0-2.3,0.3-4.5,0.9-6.6c0.6-2.1,1.4-4.1,2.5-5.9c1.1-1.8,2.4-3.5,3.9-5c1.5-1.5,3.2-2.8,5-3.9c1.8-1.1,3.8-1.9,5.9-2.5
		c2.1-0.6,4.3-0.9,6.6-0.9c3,0,5.8,0.5,8.6,1.5c2.7,1,5.2,2.5,7.5,4.4l-5,8.4c-1.5-1.5-3.1-2.6-5-3.5c-1.9-0.8-3.9-1.3-6-1.3
		c-2.1,0-4.1,0.4-5.9,1.2c-1.8,0.8-3.5,1.9-4.8,3.3s-2.5,3-3.3,4.8c-0.8,1.8-1.2,3.8-1.2,5.9c0,2.1,0.4,4.1,1.2,6s1.9,3.5,3.3,4.9
		c1.4,1.4,3,2.5,4.8,3.3c1.8,0.8,3.8,1.2,5.9,1.2c1.2,0,2.4-0.1,3.5-0.4c1.1-0.3,2.2-0.7,3.2-1.2V97.3h9.3V116.3z"/>
	<path class="st0" d="M486.3,97.3c0,2.3-0.3,4.5-0.9,6.6c-0.6,2.1-1.4,4.1-2.5,5.9c-1.1,1.8-2.4,3.5-3.9,5c-1.5,1.5-3.2,2.8-5,3.9
		c-1.8,1.1-3.8,1.9-5.9,2.5s-4.3,0.9-6.6,0.9c-2.3,0-4.5-0.3-6.6-0.9s-4.1-1.4-5.9-2.5c-1.8-1.1-3.5-2.4-5-3.9
		c-1.5-1.5-2.8-3.2-3.9-5c-1.1-1.8-1.9-3.8-2.5-5.9c-0.6-2.1-0.9-4.3-0.9-6.6c0-2.3,0.3-4.5,0.9-6.6c0.6-2.1,1.4-4.1,2.5-5.9
		c1.1-1.8,2.4-3.5,3.9-5c1.5-1.5,3.2-2.8,5-3.9c1.8-1.1,3.8-1.9,5.9-2.5s4.3-0.9,6.6-0.9c2.3,0,4.5,0.3,6.6,0.9s4.1,1.4,5.9,2.5
		c1.8,1.1,3.5,2.4,5,3.9c1.5,1.5,2.8,3.2,3.9,5c1.1,1.8,1.9,3.8,2.5,5.9C486,92.8,486.3,95,486.3,97.3z M476.7,97.3
		c0-2.1-0.4-4.1-1.2-5.9c-0.8-1.9-1.9-3.5-3.3-4.9c-1.4-1.4-3-2.5-4.9-3.3c-1.9-0.8-3.8-1.2-5.9-1.2c-2.1,0-4.1,0.4-6,1.2
		c-1.9,0.8-3.5,1.9-4.9,3.3c-1.4,1.4-2.5,3-3.3,4.9c-0.8,1.9-1.2,3.8-1.2,5.9c0,2.1,0.4,4.1,1.2,5.9c0.8,1.8,1.9,3.5,3.3,4.8
		c1.4,1.4,3,2.5,4.9,3.3c1.9,0.8,3.8,1.2,6,1.2c2.1,0,4.1-0.4,5.9-1.2c1.9-0.8,3.5-1.9,4.9-3.3c1.4-1.4,2.5-3,3.3-4.8
		S476.7,99.4,476.7,97.3z"/>
</g>
<rect x="287.5" y="126.5" class="st0" width="199" height="5"/>
</svg>
