<?xml version="1.0" encoding="utf-8"?>
<!-- Generator: Adobe Illustrator 22.1.0, SVG Export Plug-In . SVG Version: 6.00 Build 0)  -->
<svg version="1.1" id="Layer_1" xmlns="http://www.w3.org/2000/svg" xmlns:xlink="http://www.w3.org/1999/xlink" x="0px" y="0px"
	 viewBox="0 0 1024 768" style="enable-background:new 0 0 1024 768;" xml:space="preserve">
<style type="text/css">
	.st0{opacity:0.75;fill:#ACB6E5;enable-background:new    ;}
	.st1{fill:none;}
	.st2{opacity:0.5;fill:#86FDE8;enable-background:new    ;}
</style>
<path class="st0" d="M-0.3,153.2c0,3.2,0.1,6.3,0.3,9.5v-18.9C-0.2,146.9-0.3,150-0.3,153.2z"/>
<path class="st1" d="M275-0.1H153c23.7,0,46.1,5.4,66.2,15C237,8.2,255.7,3.2,275-0.1z"/>
<path class="st1" d="M153-0.1H0v143.8C4.9,63.5,71.5-0.1,153-0.1z"/>
<path class="st1" d="M914.7,452.1c-1.2,0.1-2.5,0.1-3.7,0.1c-32.3,0-58.5-26.2-58.5-58.5s26.2-58.5,58.5-58.5s58.5,26.2,58.5,58.5
	c0,21.8-11.9,40.8-29.6,50.8c26.9-6.9,55.1-10.5,84.1-10.5V-0.1H381c105.1,18,192.3,88.4,233.8,183.3c10.7-12.2,26.4-19.9,44-19.9
	c32.3,0,58.5,26.2,58.5,58.5s-26.2,58.5-58.5,58.5c-6.9,0-13.4-1.2-19.6-3.4c1,10.3,1.6,20.7,1.6,31.3c0,25.5-3.1,50.2-8.8,74
	c11.5,20.8,18,44.6,18,70c0,80.1-64.9,145-145,145c-14.9,0-29.2-2.2-42.8-6.4C421.6,610.2,376.1,621,328,621
	C155.2,621,15.2,481,15.2,308.2c0-25,3-49.3,8.5-72.6C10.1,214.3,1.6,189.4,0,162.7v458.7c81,0,146.7,65.6,146.8,146.6h539.3
	C687.8,621.3,782.9,497.1,914.7,452.1z M658,72.4c-20,0-36.2-16.2-36.2-36.2C621.8,16.2,638,0,658,0s36.2,16.2,36.2,36.2
	C694.2,56.2,678,72.4,658,72.4z"/>
<path class="st2" d="M0,621.4v52.1c52.2,0,94.6,42.3,94.7,94.5h52.1C146.7,687,81,621.4,0,621.4z"/>
<path class="st2" d="M94.7,768c-0.1-52.2-42.5-94.5-94.7-94.5V768H94.7z"/>
<path class="st2" d="M94.7,768c-0.1-52.2-42.5-94.5-94.7-94.5V768H94.7z"/>
<path class="st0" d="M658.8,280.3c32.3,0,58.5-26.2,58.5-58.5s-26.2-58.5-58.5-58.5c-17.5,0-33.3,7.7-44,19.9
	c12.7,29.2,21.2,60.7,24.4,93.7C645.4,279.1,651.9,280.3,658.8,280.3z"/>
<path class="st2" d="M969.5,393.7c0-32.3-26.2-58.5-58.5-58.5s-58.5,26.2-58.5,58.5s26.2,58.5,58.5,58.5c1.2,0,2.5-0.1,3.7-0.1
	c8.3-2.8,16.7-5.3,25.2-7.5C957.6,434.5,969.5,415.5,969.5,393.7z"/>
<circle class="st2" cx="658" cy="36.2" r="36.2"/>
<path class="st0" d="M1024,524v-90c-29,0-57.2,3.7-84.1,10.5c-7.5,4.3-16.1,7-25.2,7.5c-131.8,45-227,169.2-228.7,315.9h90
	C778.2,632.9,888.4,524,1024,524z"/>
<path class="st0" d="M776.1,768H1024V524C888.4,524,778.2,632.9,776.1,768z"/>
<path class="st0" d="M776.1,768H1024V524C888.4,524,778.2,632.9,776.1,768z"/>
<path class="st2" d="M939.9,444.5c-8.5,2.2-16.9,4.7-25.2,7.5C923.8,451.5,932.4,448.8,939.9,444.5z"/>
<path class="st0" d="M939.9,444.5c-8.5,2.2-16.9,4.7-25.2,7.5C923.8,451.5,932.4,448.8,939.9,444.5z"/>
<path class="st2" d="M278.5,65.1c16-3.2,32.6-4.9,49.5-4.9c137,0,248,111,248,248c0,5.8-0.2,11.5-0.6,17.2
	c23.8,13.2,43.4,32.9,56.6,56.7c5.7-23.7,8.8-48.5,8.8-74c0-10.6-0.5-21-1.6-31.3c-22.7-8-38.9-29.7-38.9-55.1
	c0-14.8,5.5-28.3,14.5-38.6C573.4,88.3,486.2,17.9,381-0.1H275c-19.3,3.3-37.9,8.3-55.8,15C243,26.3,263.4,43.7,278.5,65.1z"/>
<path class="st2" d="M395.3,547c-21.4,6-43.9,9.2-67.3,9.2c-137,0-248-111-248-248c0-6.6,0.3-13.2,0.8-19.8
	c-23.3-12.4-42.9-30.7-57.1-52.9c-5.5,23.3-8.5,47.6-8.5,72.6C15.2,481,155.2,621,328,621c48.1,0,93.6-10.8,134.2-30.2
	C435.9,582.7,412.8,567.3,395.3,547z"/>
<path class="st2" d="M153,306.5c-26.1,0-50.7-6.5-72.2-18.1c-0.5,6.5-0.8,13.1-0.8,19.8c0,137,111,248,248,248
	c23.3,0,45.9-3.2,67.3-9.2c-22-25.4-35.3-58.5-35.3-94.8c0-80.1,64.9-145,145-145c25.5,0,49.5,6.6,70.4,18.2
	c0.4-5.7,0.6-11.4,0.6-17.2c0-137-111-248-248-248c-17,0-33.5,1.7-49.5,4.9c17.5,24.9,27.8,55.3,27.8,88.1
	C306.3,237.9,237.7,306.5,153,306.5z"/>
<path class="st2" d="M153,306.5c-26.1,0-50.7-6.5-72.2-18.1c-0.5,6.5-0.8,13.1-0.8,19.8c0,137,111,248,248,248
	c23.3,0,45.9-3.2,67.3-9.2c-22-25.4-35.3-58.5-35.3-94.8c0-80.1,64.9-145,145-145c25.5,0,49.5,6.6,70.4,18.2
	c0.4-5.7,0.6-11.4,0.6-17.2c0-137-111-248-248-248c-17,0-33.5,1.7-49.5,4.9c17.5,24.9,27.8,55.3,27.8,88.1
	C306.3,237.9,237.7,306.5,153,306.5z"/>
<path class="st0" d="M639.2,276.9c-3.3-33-11.7-64.5-24.4-93.7c-9,10.3-14.5,23.8-14.5,38.6C600.3,247.3,616.6,268.9,639.2,276.9z"
	/>
<path class="st2" d="M639.2,276.9c-3.3-33-11.7-64.5-24.4-93.7c-9,10.3-14.5,23.8-14.5,38.6C600.3,247.3,616.6,268.9,639.2,276.9z"
	/>
<path class="st0" d="M219.2,14.9c-20-9.6-42.5-15-66.2-15C71.5-0.1,4.9,63.5,0,143.7v18.9c1.6,26.7,10.1,51.6,23.7,72.9
	C48,133.5,122.2,50.9,219.2,14.9z"/>
<path class="st2" d="M80.8,288.4c8.8-111.1,90.7-201.6,197.7-223.3c-15.1-21.4-35.5-38.9-59.3-50.3C122.2,50.9,48,133.5,23.7,235.6
	C37.8,257.7,57.5,276,80.8,288.4z"/>
<path class="st0" d="M80.8,288.4c8.8-111.1,90.7-201.6,197.7-223.3c-15.1-21.4-35.5-38.9-59.3-50.3C122.2,50.9,48,133.5,23.7,235.6
	C37.8,257.7,57.5,276,80.8,288.4z"/>
<path class="st2" d="M80.8,288.4c21.5,11.5,46.1,18.1,72.2,18.1c84.7,0,153.3-68.6,153.3-153.3c0-32.8-10.3-63.1-27.8-88.1
	C171.5,86.8,89.5,177.3,80.8,288.4z"/>
<path class="st2" d="M80.8,288.4c21.5,11.5,46.1,18.1,72.2,18.1c84.7,0,153.3-68.6,153.3-153.3c0-32.8-10.3-63.1-27.8-88.1
	C171.5,86.8,89.5,177.3,80.8,288.4z"/>
<path class="st0" d="M80.8,288.4c21.5,11.5,46.1,18.1,72.2,18.1c84.7,0,153.3-68.6,153.3-153.3c0-32.8-10.3-63.1-27.8-88.1
	C171.5,86.8,89.5,177.3,80.8,288.4z"/>
<path class="st0" d="M536.2,541.6c-22.1,19.7-46.9,36.3-73.9,49.1c13.5,4.2,27.9,6.4,42.8,6.4c80.1,0,145-64.9,145-145
	c0-25.4-6.5-49.3-18-70c-7.1,29.4-18.4,57.1-33.1,82.6C594.1,500.6,569.4,530.1,536.2,541.6z"/>
<path class="st0" d="M536.2,541.6c33.2-11.6,58-41.1,62.7-76.9C582.1,493.6,560.9,519.6,536.2,541.6z"/>
<path class="st0" d="M536.2,541.6c33.2-11.6,58-41.1,62.7-76.9C582.1,493.6,560.9,519.6,536.2,541.6z"/>
<path class="st2" d="M575.4,325.4c-1.3,18.6-4.6,36.7-9.8,54c20.8,17.4,34.1,43.5,34.1,72.8c0,4.2-0.3,8.4-0.8,12.5
	c14.7-25.5,26-53.2,33.1-82.6C618.8,358.3,599.2,338.6,575.4,325.4z"/>
<path class="st0" d="M575.4,325.4c-1.3,18.6-4.6,36.7-9.8,54c20.8,17.4,34.1,43.5,34.1,72.8c0,4.2-0.3,8.4-0.8,12.5
	c14.7-25.5,26-53.2,33.1-82.6C618.8,358.3,599.2,338.6,575.4,325.4z"/>
<path class="st2" d="M505,546.9c-22.3,0-42.7-7.7-58.9-20.6c-16,8.7-33,15.6-50.8,20.6c17.6,20.3,40.7,35.7,67,43.8
	c27-12.9,51.9-29.5,73.9-49.1C526.4,545,515.9,546.9,505,546.9z"/>
<path class="st0" d="M505,546.9c-22.3,0-42.7-7.7-58.9-20.6c-16,8.7-33,15.6-50.8,20.6c17.6,20.3,40.7,35.7,67,43.8
	c27-12.9,51.9-29.5,73.9-49.1C526.4,545,515.9,546.9,505,546.9z"/>
<path class="st2" d="M360,452.2c0,36.2,13.3,69.4,35.3,94.8c17.8-5,34.9-12,50.8-20.6c-21.8-17.3-35.8-44.1-35.8-74.1
	c0-52.3,42.4-94.7,94.7-94.7c23.1,0,44.2,8.2,60.6,21.9c5.2-17.3,8.5-35.4,9.8-54c-20.8-11.6-44.8-18.2-70.4-18.2
	C424.9,307.2,360,372.1,360,452.2z"/>
<path class="st2" d="M360,452.2c0,36.2,13.3,69.4,35.3,94.8c17.8-5,34.9-12,50.8-20.6c-21.8-17.3-35.8-44.1-35.8-74.1
	c0-52.3,42.4-94.7,94.7-94.7c23.1,0,44.2,8.2,60.6,21.9c5.2-17.3,8.5-35.4,9.8-54c-20.8-11.6-44.8-18.2-70.4-18.2
	C424.9,307.2,360,372.1,360,452.2z"/>
<path class="st0" d="M360,452.2c0,36.2,13.3,69.4,35.3,94.8c17.8-5,34.9-12,50.8-20.6c-21.8-17.3-35.8-44.1-35.8-74.1
	c0-52.3,42.4-94.7,94.7-94.7c23.1,0,44.2,8.2,60.6,21.9c5.2-17.3,8.5-35.4,9.8-54c-20.8-11.6-44.8-18.2-70.4-18.2
	C424.9,307.2,360,372.1,360,452.2z"/>
<path class="st0" d="M446.1,526.3c16.2,12.9,36.6,20.6,58.9,20.6c10.9,0,21.4-1.9,31.2-5.3c24.7-22.1,46-48,62.7-76.9
	c0.5-4.1,0.8-8.3,0.8-12.5c0-29.2-13.3-55.4-34.1-72.8C546.7,442.7,503.1,495.4,446.1,526.3z"/>
<path class="st2" d="M446.1,526.3c16.2,12.9,36.6,20.6,58.9,20.6c10.9,0,21.4-1.9,31.2-5.3c24.7-22.1,46-48,62.7-76.9
	c0.5-4.1,0.8-8.3,0.8-12.5c0-29.2-13.3-55.4-34.1-72.8C546.7,442.7,503.1,495.4,446.1,526.3z"/>
<path class="st0" d="M446.1,526.3c16.2,12.9,36.6,20.6,58.9,20.6c10.9,0,21.4-1.9,31.2-5.3c24.7-22.1,46-48,62.7-76.9
	c0.5-4.1,0.8-8.3,0.8-12.5c0-29.2-13.3-55.4-34.1-72.8C546.7,442.7,503.1,495.4,446.1,526.3z"/>
<path class="st2" d="M410.3,452.2c0,30,14,56.8,35.8,74.1c57-30.9,100.6-83.6,119.5-146.9c-16.4-13.7-37.5-21.9-60.6-21.9
	C452.7,357.5,410.3,399.9,410.3,452.2z"/>
<path class="st0" d="M410.3,452.2c0,30,14,56.8,35.8,74.1c57-30.9,100.6-83.6,119.5-146.9c-16.4-13.7-37.5-21.9-60.6-21.9
	C452.7,357.5,410.3,399.9,410.3,452.2z"/>
<path class="st2" d="M410.3,452.2c0,30,14,56.8,35.8,74.1c57-30.9,100.6-83.6,119.5-146.9c-16.4-13.7-37.5-21.9-60.6-21.9
	C452.7,357.5,410.3,399.9,410.3,452.2z"/>
<path class="st0" d="M410.3,452.2c0,30,14,56.8,35.8,74.1c57-30.9,100.6-83.6,119.5-146.9c-16.4-13.7-37.5-21.9-60.6-21.9
	C452.7,357.5,410.3,399.9,410.3,452.2z"/>
</svg>
